<mxfile host="app.diagrams.net" modified="2023-03-20T12:20:54.085Z" agent="5.0 (Macintosh; Intel Mac OS X 10_15_7) AppleWebKit/537.36 (KHTML, like Gecko) Chrome/110.0.0.0 Safari/537.36" etag="AG1MdvJhZUCRZqpwwF3i" version="21.0.8" type="github">
  <diagram name="第 1 页" id="C-YzgfrlOG-n3W1DghHm">
    <mxGraphModel dx="2133" dy="836" grid="1" gridSize="10" guides="1" tooltips="1" connect="1" arrows="1" fold="1" page="1" pageScale="1" pageWidth="827" pageHeight="1169" math="0" shadow="0">
      <root>
        <mxCell id="0" />
        <mxCell id="1" parent="0" />
        <mxCell id="DzGCFRLPrMzSAJYItLeq-4" style="edgeStyle=orthogonalEdgeStyle;rounded=0;orthogonalLoop=1;jettySize=auto;html=1;exitX=0.875;exitY=0.5;exitDx=0;exitDy=0;exitPerimeter=0;entryX=0;entryY=0.5;entryDx=0;entryDy=0;" edge="1" parent="1" source="DzGCFRLPrMzSAJYItLeq-1" target="DzGCFRLPrMzSAJYItLeq-2">
          <mxGeometry relative="1" as="geometry" />
        </mxCell>
        <mxCell id="DzGCFRLPrMzSAJYItLeq-1" value="API服务" style="ellipse;shape=cloud;whiteSpace=wrap;html=1;fillColor=#e1d5e7;strokeColor=#9673a6;" vertex="1" parent="1">
          <mxGeometry x="190" y="320" width="120" height="80" as="geometry" />
        </mxCell>
        <mxCell id="DzGCFRLPrMzSAJYItLeq-5" style="edgeStyle=orthogonalEdgeStyle;rounded=0;orthogonalLoop=1;jettySize=auto;html=1;exitX=0.5;exitY=0;exitDx=0;exitDy=0;entryX=0.5;entryY=1;entryDx=0;entryDy=0;entryPerimeter=0;" edge="1" parent="1" source="DzGCFRLPrMzSAJYItLeq-2" target="DzGCFRLPrMzSAJYItLeq-3">
          <mxGeometry relative="1" as="geometry" />
        </mxCell>
        <mxCell id="DzGCFRLPrMzSAJYItLeq-2" value="业务逻辑" style="rounded=0;whiteSpace=wrap;html=1;fillColor=#dae8fc;strokeColor=#6c8ebf;" vertex="1" parent="1">
          <mxGeometry x="390" y="330" width="120" height="60" as="geometry" />
        </mxCell>
        <mxCell id="DzGCFRLPrMzSAJYItLeq-9" style="edgeStyle=orthogonalEdgeStyle;rounded=0;orthogonalLoop=1;jettySize=auto;html=1;exitX=1;exitY=0.5;exitDx=0;exitDy=0;exitPerimeter=0;entryX=0;entryY=0.5;entryDx=0;entryDy=0;entryPerimeter=0;" edge="1" parent="1" source="DzGCFRLPrMzSAJYItLeq-3" target="DzGCFRLPrMzSAJYItLeq-8">
          <mxGeometry relative="1" as="geometry" />
        </mxCell>
        <mxCell id="DzGCFRLPrMzSAJYItLeq-3" value="MySQL" style="shape=cylinder3;whiteSpace=wrap;html=1;boundedLbl=1;backgroundOutline=1;size=15;fillColor=#fff2cc;strokeColor=#d6b656;" vertex="1" parent="1">
          <mxGeometry x="420" y="190" width="60" height="80" as="geometry" />
        </mxCell>
        <mxCell id="DzGCFRLPrMzSAJYItLeq-7" style="edgeStyle=orthogonalEdgeStyle;rounded=0;orthogonalLoop=1;jettySize=auto;html=1;exitX=0.5;exitY=0.5;exitDx=0;exitDy=0;exitPerimeter=0;entryX=0.16;entryY=0.55;entryDx=0;entryDy=0;entryPerimeter=0;" edge="1" parent="1" source="DzGCFRLPrMzSAJYItLeq-6" target="DzGCFRLPrMzSAJYItLeq-1">
          <mxGeometry relative="1" as="geometry" />
        </mxCell>
        <mxCell id="DzGCFRLPrMzSAJYItLeq-6" value="用户" style="shape=umlActor;verticalLabelPosition=bottom;verticalAlign=top;html=1;outlineConnect=0;" vertex="1" parent="1">
          <mxGeometry x="40" y="334" width="30" height="60" as="geometry" />
        </mxCell>
        <mxCell id="DzGCFRLPrMzSAJYItLeq-8" value="Mem" style="shape=cylinder3;whiteSpace=wrap;html=1;boundedLbl=1;backgroundOutline=1;size=15;fillColor=#fff2cc;strokeColor=#d6b656;" vertex="1" parent="1">
          <mxGeometry x="648" y="190" width="60" height="80" as="geometry" />
        </mxCell>
        <mxCell id="DzGCFRLPrMzSAJYItLeq-10" value="CacheSetter.reload" style="text;html=1;align=center;verticalAlign=middle;resizable=0;points=[];autosize=1;strokeColor=none;fillColor=none;" vertex="1" parent="1">
          <mxGeometry x="502" y="200" width="130" height="30" as="geometry" />
        </mxCell>
        <mxCell id="DzGCFRLPrMzSAJYItLeq-11" value="" style="rounded=0;whiteSpace=wrap;html=1;fillColor=none;" vertex="1" parent="1">
          <mxGeometry x="-10" y="180" width="795" height="250" as="geometry" />
        </mxCell>
        <mxCell id="DzGCFRLPrMzSAJYItLeq-12" value="AZ-YZ" style="text;html=1;align=center;verticalAlign=middle;resizable=0;points=[];autosize=1;strokeColor=none;fillColor=none;" vertex="1" parent="1">
          <mxGeometry x="70" y="210" width="60" height="30" as="geometry" />
        </mxCell>
        <mxCell id="DzGCFRLPrMzSAJYItLeq-19" style="edgeStyle=orthogonalEdgeStyle;rounded=0;orthogonalLoop=1;jettySize=auto;html=1;exitX=0.5;exitY=0.5;exitDx=0;exitDy=0;exitPerimeter=0;entryX=0.16;entryY=0.55;entryDx=0;entryDy=0;entryPerimeter=0;" edge="1" parent="1" source="DzGCFRLPrMzSAJYItLeq-13" target="DzGCFRLPrMzSAJYItLeq-15">
          <mxGeometry relative="1" as="geometry" />
        </mxCell>
        <mxCell id="DzGCFRLPrMzSAJYItLeq-13" value="用户" style="shape=umlActor;verticalLabelPosition=bottom;verticalAlign=top;html=1;outlineConnect=0;" vertex="1" parent="1">
          <mxGeometry x="40" y="624" width="30" height="60" as="geometry" />
        </mxCell>
        <mxCell id="DzGCFRLPrMzSAJYItLeq-20" style="edgeStyle=orthogonalEdgeStyle;rounded=0;orthogonalLoop=1;jettySize=auto;html=1;exitX=0.875;exitY=0.5;exitDx=0;exitDy=0;exitPerimeter=0;entryX=0;entryY=0.5;entryDx=0;entryDy=0;" edge="1" parent="1" source="DzGCFRLPrMzSAJYItLeq-15" target="DzGCFRLPrMzSAJYItLeq-16">
          <mxGeometry relative="1" as="geometry" />
        </mxCell>
        <mxCell id="DzGCFRLPrMzSAJYItLeq-15" value="API服务" style="ellipse;shape=cloud;whiteSpace=wrap;html=1;fillColor=#e1d5e7;strokeColor=#9673a6;" vertex="1" parent="1">
          <mxGeometry x="190" y="610" width="120" height="80" as="geometry" />
        </mxCell>
        <mxCell id="DzGCFRLPrMzSAJYItLeq-21" style="edgeStyle=orthogonalEdgeStyle;rounded=0;orthogonalLoop=1;jettySize=auto;html=1;exitX=1;exitY=0.5;exitDx=0;exitDy=0;entryX=0;entryY=0.5;entryDx=0;entryDy=0;" edge="1" parent="1" source="DzGCFRLPrMzSAJYItLeq-16" target="DzGCFRLPrMzSAJYItLeq-18">
          <mxGeometry relative="1" as="geometry" />
        </mxCell>
        <mxCell id="DzGCFRLPrMzSAJYItLeq-16" value="业务逻辑" style="rounded=0;whiteSpace=wrap;html=1;fillColor=#dae8fc;strokeColor=#6c8ebf;" vertex="1" parent="1">
          <mxGeometry x="370" y="620" width="120" height="60" as="geometry" />
        </mxCell>
        <mxCell id="DzGCFRLPrMzSAJYItLeq-22" style="edgeStyle=orthogonalEdgeStyle;rounded=0;orthogonalLoop=1;jettySize=auto;html=1;exitX=0.5;exitY=1;exitDx=0;exitDy=0;exitPerimeter=0;entryX=0.5;entryY=0;entryDx=0;entryDy=0;" edge="1" parent="1" source="DzGCFRLPrMzSAJYItLeq-17" target="DzGCFRLPrMzSAJYItLeq-18">
          <mxGeometry relative="1" as="geometry" />
        </mxCell>
        <mxCell id="DzGCFRLPrMzSAJYItLeq-17" value="Mem" style="shape=cylinder3;whiteSpace=wrap;html=1;boundedLbl=1;backgroundOutline=1;size=15;fillColor=#fff2cc;strokeColor=#d6b656;" vertex="1" parent="1">
          <mxGeometry x="600" y="490" width="60" height="80" as="geometry" />
        </mxCell>
        <mxCell id="DzGCFRLPrMzSAJYItLeq-24" style="edgeStyle=orthogonalEdgeStyle;rounded=0;orthogonalLoop=1;jettySize=auto;html=1;exitX=1;exitY=0.5;exitDx=0;exitDy=0;entryX=0.5;entryY=0.5;entryDx=0;entryDy=0;entryPerimeter=0;" edge="1" parent="1" source="DzGCFRLPrMzSAJYItLeq-18" target="DzGCFRLPrMzSAJYItLeq-23">
          <mxGeometry relative="1" as="geometry" />
        </mxCell>
        <mxCell id="DzGCFRLPrMzSAJYItLeq-18" value="广播信令" style="rounded=0;whiteSpace=wrap;html=1;fillColor=#dae8fc;strokeColor=#6c8ebf;" vertex="1" parent="1">
          <mxGeometry x="570" y="620" width="120" height="60" as="geometry" />
        </mxCell>
        <mxCell id="DzGCFRLPrMzSAJYItLeq-23" value="直播间" style="shape=umlActor;verticalLabelPosition=bottom;verticalAlign=top;html=1;outlineConnect=0;" vertex="1" parent="1">
          <mxGeometry x="797" y="620" width="30" height="60" as="geometry" />
        </mxCell>
        <mxCell id="DzGCFRLPrMzSAJYItLeq-25" value="" style="rounded=0;whiteSpace=wrap;html=1;fillColor=none;" vertex="1" parent="1">
          <mxGeometry y="480" width="850" height="250" as="geometry" />
        </mxCell>
        <mxCell id="DzGCFRLPrMzSAJYItLeq-26" value="AZ-ZW" style="text;html=1;align=center;verticalAlign=middle;resizable=0;points=[];autosize=1;strokeColor=none;fillColor=none;" vertex="1" parent="1">
          <mxGeometry x="80" y="540" width="60" height="30" as="geometry" />
        </mxCell>
      </root>
    </mxGraphModel>
  </diagram>
</mxfile>
